<?xml version="1.0" encoding="utf-8"?>
<svg xmlns="http://www.w3.org/2000/svg"
	xmlns:xlink="http://www.w3.org/1999/xlink"
	width="48px" height="47px" viewBox="0 0 48 47">
<path fillRule="evenodd" d="M 47.33 36.83C 47.43 37.59 47.2 38.25 46.64 38.81 46.64 38.81 40.07 45.33 40.07 45.33 39.77 45.66 39.39 45.94 38.91 46.17 38.43 46.4 37.96 46.55 37.5 46.62 37.47 46.62 37.37 46.63 37.2 46.64 37.04 46.66 36.82 46.67 36.56 46.67 35.94 46.67 34.92 46.56 33.52 46.35 32.12 46.13 30.41 45.6 28.38 44.76 26.36 43.92 24.06 42.66 21.49 40.98 18.92 39.3 16.19 36.99 13.29 34.06 10.98 31.78 9.07 29.61 7.55 27.53 6.04 25.45 4.82 23.53 3.9 21.77 2.97 20.01 2.28 18.41 1.82 16.97 1.36 15.54 1.05 14.3 0.88 13.26 0.72 12.23 0.65 11.41 0.68 10.82 0.72 10.22 0.73 9.89 0.73 9.83 0.8 9.37 0.95 8.9 1.18 8.42 1.41 7.94 1.69 7.55 2.02 7.26 2.02 7.26 8.59 0.68 8.59 0.68 9.05 0.22 9.58-0.01 10.17-0.01 10.6-0.01 10.98 0.11 11.31 0.36 11.64 0.61 11.92 0.91 12.15 1.27 12.15 1.27 17.44 11.31 17.44 11.31 17.73 11.84 17.82 12.42 17.68 13.04 17.55 13.67 17.27 14.2 16.84 14.62 16.84 14.62 14.42 17.05 14.42 17.05 14.36 17.11 14.3 17.22 14.25 17.37 14.2 17.52 14.18 17.64 14.18 17.74 14.31 18.43 14.6 19.22 15.07 20.11 15.46 20.9 16.07 21.87 16.89 23.01 17.72 24.14 18.89 25.45 20.4 26.94 21.88 28.45 23.2 29.63 24.36 30.47 25.51 31.31 26.47 31.93 27.25 32.33 28.02 32.72 28.61 32.96 29.03 33.04 29.03 33.04 29.64 33.17 29.64 33.17 29.71 33.17 29.82 33.14 29.96 33.09 30.11 33.04 30.22 32.99 30.29 32.92 30.29 32.92 33.1 30.05 33.1 30.05 33.7 29.53 34.39 29.26 35.18 29.26 35.74 29.26 36.18 29.36 36.51 29.56 36.51 29.56 36.56 29.56 36.56 29.56 36.56 29.56 46.1 35.2 46.1 35.2 46.79 35.62 47.2 36.17 47.33 36.83Z" fill="rgb(181,184,203)" opacity="0.60"/></svg>