<?xml version="1.0" encoding="utf-8"?>
<svg xmlns="http://www.w3.org/2000/svg"
	xmlns:xlink="http://www.w3.org/1999/xlink"
	width="51px" height="34px" viewBox="0 0 51 34">
<path fillRule="evenodd" d="M 30.79 16.79C 30.5 16.86 30.19 16.94 29.92 17 29.92 17 30.24 17.27 30.24 17.27 30.24 17.27 25.91 21.03 25.91 21.03 24.14 22.29 25.84 22.29 24.08 21.03 24.08 21.03 19.74 17.27 19.74 17.27 19.74 17.27 20.08 16.99 20.08 16.99 19.79 16.93 19.47 16.84 19.17 16.77 19.17 16.77 1.79 1.69 1.79 1.69 2.56 1.06 3.52 0.68 4.57 0.68 4.57 0.68 45.49 0.68 45.49 0.68 46.52 0.68 47.46 1.05 48.23 1.66 48.23 1.66 30.79 16.79 30.79 16.79ZM 14.04 17.18C 14.04 17.18 0.02 28.92 0.02 28.92 0.02 28.92 0.02 5.44 0.02 5.44 0.02 5.31 0.05 5.18 0.06 5.05 0.06 5.05 14.04 17.18 14.04 17.18ZM 24.08 25.88C 25.84 27.14 24.14 27.14 25.91 25.88 25.91 25.88 33.09 19.65 33.09 19.65 33.09 19.65 48.62 32.67 48.62 32.67 47.8 33.48 46.7 33.99 45.49 33.99 45.49 33.99 4.57 33.99 4.57 33.99 3.33 33.99 2.22 33.47 1.4 32.64 1.4 32.64 16.9 19.65 16.9 19.65 16.9 19.65 24.08 25.88 24.08 25.88ZM 49.99 5C 50.01 5.14 50.03 5.29 50.03 5.44 50.03 5.44 50.03 28.98 50.03 28.98 50.03 28.98 35.94 17.18 35.94 17.18 35.94 17.18 49.99 5 49.99 5Z" fill="rgb(181,184,203)" opacity="0.60"/></svg>